<?xml version="1.0" standalone="no"?><!DOCTYPE svg PUBLIC "-//W3C//DTD SVG 1.1//EN" "http://www.w3.org/Graphics/SVG/1.1/DTD/svg11.dtd"><svg t="1695323950461" class="icon" viewBox="0 0 1024 1024" version="1.1" xmlns="http://www.w3.org/2000/svg" p-id="6235" xmlns:xlink="http://www.w3.org/1999/xlink" width="200" height="200"><path d="M146.285714 0h731.428572a146.285714 146.285714 0 0 1 146.285714 146.285714v731.428572a146.285714 146.285714 0 0 1-146.285714 146.285714H146.285714a146.285714 146.285714 0 0 1-146.285714-146.285714V146.285714a146.285714 146.285714 0 0 1 146.285714-146.285714z" fill="#FFAC24" p-id="6236"></path><path d="M496.310857 876.873143C275.456 876.873143 182.857143 796.964571 182.857143 632.758857c0-136.045714 105.033143-278.016 232.374857-322.779428h162.194286c127.341714 44.763429 232.374857 186.733714 232.374857 322.779428 0 164.205714-92.635429 244.114286-313.490286 244.114286z m86.893714-269.860572v-0.036571a26.806857 26.806857 0 0 0 26.514286-26.953143 26.843429 26.843429 0 0 0-26.514286-26.989714v-0.073143h-53.76c0.109714-0.585143-0.073143-1.133714 0-1.755429L592.457143 486.034286c10.276571-11.702857 5.046857-21.394286-5.339429-32-10.459429-10.678857-27.538286-12.909714-35.986285-3.620572l-54.198858 58.441143-58.514285-59.209143c-7.424-7.497143-21.833143-5.046857-32.182857 5.449143-10.386286 10.496-12.763429 25.088-5.376 32.585143l59.867428 60.525714a12.690286 12.690286 0 0 0-2.267428 4.754286h-48.64v0.036571h-0.146286c-14.738286 0-26.697143 12.068571-26.697143 26.989715 0 14.884571 11.922286 26.989714 26.697143 26.989714l0.146286-0.036571v0.036571h53.321142v26.88h-53.321142v0.073143h-0.146286c-14.738286 0-26.697143 12.068571-26.697143 26.989714 0 14.884571 11.922286 26.989714 26.697143 26.989714l0.146286-0.036571v0.036571h53.321142v27.172572h0.548572a33.499429 33.499429 0 0 0 32.694857 40.265143 33.536 33.536 0 0 0 32.694857-40.265143h0.292572v-27.172572l53.869714-0.036571a26.806857 26.806857 0 0 0 26.514286-26.953143 26.88 26.88 0 0 0-26.514286-26.989714v-0.073143h-53.869714v-26.88l53.833142 0.036571z m39.862858-404.809142l-5.595429 7.094857-0.329143 0.438857-47.433143 59.940571h-160.073143L362.276571 209.810286c-0.329143-0.329143-0.585143-0.768-0.877714-1.133715l-5.12-6.473142 0.914286-1.828572c-0.475429-1.645714-1.024-3.291429-1.024-5.083428 0-8.594286 5.339429-15.835429 12.836571-18.797715l0.621715-1.28s65.572571-13.275429 120.064-13.494857c57.014857-0.256 120.064 13.494857 120.064 13.494857l0.658285 1.28a20.224 20.224 0 0 1 12.726857 18.797715c0 1.755429-0.585143 3.328-0.987428 4.937142l0.914286 1.974858z" fill="#FFFFFF" p-id="6237"></path></svg>